<svg width="375" height="338" viewBox="0 0 375 338" fill="none" xmlns="http://www.w3.org/2000/svg">
<rect x="-71" width="542" height="330" rx="35" fill="#1354DC"/>
<mask id="mask0" style="mask-type:alpha" maskUnits="userSpaceOnUse" x="-71" y="0" width="542" height="330">
<rect x="-71" width="542" height="330" fill="#1354DC"/>
</mask>
<g mask="url(#mask0)">
<ellipse cx="10.6702" cy="276.836" rx="13.407" ry="13.4492" stroke="#CEDBFD" stroke-width="9.32905"/>
<ellipse cx="10.6705" cy="276.836" rx="26.4947" ry="26.5782" stroke="#CEDBFD" stroke-width="9.32905"/>
<ellipse cx="10.6705" cy="276.836" rx="40.5401" ry="40.6679" stroke="#CEDBFD" stroke-width="9.32905"/>
<ellipse cx="10.6703" cy="276.836" rx="52.6703" ry="52.8362" stroke="#CEDBFD" stroke-width="9.32905"/>
<path d="M1.2666 127.837L16.4293 102.7L31.5919 127.837H1.2666Z" fill="#FD7B7E"/>
<path d="M362.13 187.324L362.644 236.152L308.238 236.732C313.461 195.583 345.129 188.114 362.13 187.324Z" fill="#CEDBFD"/>
<path d="M406.061 -21.9286L352.275 -21.3555C393.413 -19.4882 405.645 14.3682 406.619 31.0629L406.061 -21.9286Z" fill="#CEDBFD"/>
<path d="M261.337 -1.46232L246.948 24.1287L231.025 -0.529207L261.337 -1.46232Z" fill="#FD7B7E"/>
<ellipse rx="13.1286" ry="13.0882" transform="matrix(0.0105228 0.999945 -0.999943 0.0106545 213.709 238.444)" fill="#FD7B7E"/>
<mask id="mask1" style="mask-type:alpha" maskUnits="userSpaceOnUse" x="-81" y="-1" width="113" height="58">
<rect width="111.409" height="55.3906" transform="matrix(-0.999943 0.0106915 -0.0104865 -0.999945 31.5747 55.3867)" fill="#C4C4C4"/>
</mask>
<g mask="url(#mask1)">
<path d="M133.517 -1.48041L-67.6958 -196.711" stroke="#CEDBFD" stroke-width="9.32905"/>
<path d="M38.0815 97.4991L-163.131 -97.7311" stroke="#CEDBFD" stroke-width="9.32905"/>
<path d="M123.973 8.41754L-77.2393 -186.813" stroke="#CEDBFD" stroke-width="9.32905"/>
<path d="M28.5381 107.397L-172.674 -87.8332" stroke="#CEDBFD" stroke-width="9.32905"/>
<path d="M114.43 18.3155L-86.7827 -176.915" stroke="#CEDBFD" stroke-width="9.32905"/>
<path d="M18.9946 117.295L-182.218 -77.9352" stroke="#CEDBFD" stroke-width="9.32905"/>
<path d="M104.886 28.2134L-96.3262 -167.017" stroke="#CEDBFD" stroke-width="9.32905"/>
<path d="M9.45117 127.193L-191.761 -68.0373" stroke="#CEDBFD" stroke-width="9.32905"/>
<path d="M95.3428 38.1114L-105.87 -157.119" stroke="#CEDBFD" stroke-width="9.32905"/>
<path d="M-0.0927734 137.091L-201.305 -58.1393" stroke="#CEDBFD" stroke-width="9.32905"/>
<path d="M85.7988 48.0093L-115.414 -147.221" stroke="#CEDBFD" stroke-width="9.32905"/>
<path d="M76.2554 57.9073L-124.957 -137.323" stroke="#CEDBFD" stroke-width="9.32905"/>
<path d="M66.7119 67.8052L-134.5 -127.425" stroke="#CEDBFD" stroke-width="9.32905"/>
<path d="M57.1685 77.7032L-144.044 -117.527" stroke="#CEDBFD" stroke-width="9.32905"/>
<path d="M47.625 87.6012L-153.587 -107.629" stroke="#CEDBFD" stroke-width="9.32905"/>
</g>
<mask id="mask2" style="mask-type:alpha" maskUnits="userSpaceOnUse" x="295" y="-78" width="57" height="114">
<rect width="111.753" height="55.2311" transform="matrix(0.0104821 0.999945 -0.999943 0.0106961 350.257 -77.057)" fill="#C4C4C4"/>
</mask>
<g mask="url(#mask2)">
<path d="M286.639 -182.448L485.473 15.218" stroke="#CEDBFD" stroke-width="9.32905"/>
<path d="M190.013 -84.6381L388.848 113.028" stroke="#CEDBFD" stroke-width="9.32905"/>
<path d="M276.976 -172.667L475.811 24.999" stroke="#CEDBFD" stroke-width="9.32905"/>
<path d="M180.351 -74.8571L379.185 122.809" stroke="#CEDBFD" stroke-width="9.32905"/>
<path d="M267.313 -162.886L466.148 34.78" stroke="#CEDBFD" stroke-width="9.32905"/>
<path d="M170.688 -65.076L369.523 132.59" stroke="#CEDBFD" stroke-width="9.32905"/>
<path d="M257.651 -153.105L456.486 44.5611" stroke="#CEDBFD" stroke-width="9.32905"/>
<path d="M161.025 -55.295L359.86 142.371" stroke="#CEDBFD" stroke-width="9.32905"/>
<path d="M247.988 -143.324L446.823 54.3421" stroke="#CEDBFD" stroke-width="9.32905"/>
<path d="M151.363 -45.514L350.198 152.152" stroke="#CEDBFD" stroke-width="9.32905"/>
<path d="M238.326 -133.543L437.16 64.1231" stroke="#CEDBFD" stroke-width="9.32905"/>
<path d="M141.7 -35.733L340.535 161.933" stroke="#CEDBFD" stroke-width="9.32905"/>
<path d="M228.663 -123.762L427.498 73.9041" stroke="#CEDBFD" stroke-width="9.32905"/>
<path d="M132.038 -25.952L330.872 171.714" stroke="#CEDBFD" stroke-width="9.32905"/>
<path d="M219 -113.981L417.835 83.6851" stroke="#CEDBFD" stroke-width="9.32905"/>
<path d="M122.375 -16.171L321.21 181.495" stroke="#CEDBFD" stroke-width="9.32905"/>
<path d="M209.338 -104.2L408.173 93.4661" stroke="#CEDBFD" stroke-width="9.32905"/>
<path d="M112.712 -6.38995L311.547 191.276" stroke="#CEDBFD" stroke-width="9.32905"/>
<path d="M199.675 -94.4191L398.51 103.247" stroke="#CEDBFD" stroke-width="9.32905"/>
<path d="M103.05 3.39105L301.885 201.057" stroke="#CEDBFD" stroke-width="9.32905"/>
</g>
</g>
<path d="M159.359 171.87C159.992 171.87 160.554 171.811 161.07 171.682C161.585 171.554 162.031 171.366 162.417 171.108C162.792 170.862 163.121 170.557 163.402 170.206C163.683 169.854 163.906 169.456 164.082 168.987C164.257 168.518 164.386 168.014 164.468 167.475C164.55 166.936 164.597 166.35 164.597 165.706V154.655H161.21V165.764C161.21 167.745 160.519 168.729 159.136 168.729C158.679 168.729 158.222 168.6 157.765 168.319C157.308 168.038 156.921 167.686 156.605 167.264L154.683 169.643C155.246 170.37 155.937 170.932 156.781 171.307C157.613 171.682 158.468 171.87 159.359 171.87ZM174.392 159.987V165.671C174.392 166.761 174.134 167.604 173.642 168.19C173.138 168.788 172.517 169.081 171.791 169.081C171.041 169.081 170.502 168.87 170.173 168.448C169.845 168.026 169.693 167.276 169.693 166.221V159.987H166.552V167.042C166.552 167.921 166.646 168.671 166.857 169.304C167.068 169.936 167.361 170.44 167.759 170.815C168.158 171.19 168.603 171.471 169.119 171.647C169.623 171.823 170.209 171.905 170.865 171.905C171.533 171.905 172.166 171.776 172.763 171.495C173.361 171.214 173.888 170.815 174.345 170.276H174.392V171.706H177.533V159.987H174.392ZM186.273 159.788C184.773 159.788 183.59 160.304 182.722 161.335H182.675V159.987H179.535V176.452H182.675V170.393H182.722C183.554 171.401 184.703 171.905 186.179 171.905C186.976 171.905 187.726 171.764 188.418 171.471C189.109 171.19 189.707 170.78 190.199 170.264C190.691 169.749 191.09 169.104 191.371 168.354C191.652 167.604 191.793 166.772 191.793 165.882C191.793 165.179 191.699 164.522 191.523 163.889C191.336 163.257 191.078 162.694 190.75 162.202C190.422 161.71 190.023 161.276 189.578 160.913C189.121 160.55 188.605 160.268 188.043 160.081C187.48 159.893 186.882 159.788 186.273 159.788ZM185.605 169.093C185.031 169.093 184.515 168.964 184.047 168.706C183.578 168.448 183.215 168.061 182.945 167.569C182.675 167.077 182.547 166.526 182.547 165.893C182.547 165.436 182.617 165.003 182.769 164.593C182.922 164.194 183.132 163.843 183.402 163.55C183.66 163.268 183.988 163.034 184.363 162.87C184.738 162.706 185.16 162.612 185.605 162.612C186.461 162.612 187.175 162.917 187.75 163.514C188.312 164.124 188.605 164.909 188.605 165.893C188.605 166.843 188.324 167.616 187.761 168.202C187.199 168.8 186.484 169.093 185.605 169.093ZM194.978 158.335C195.506 158.335 195.963 158.147 196.349 157.772C196.724 157.397 196.924 156.952 196.924 156.413C196.924 155.897 196.724 155.44 196.349 155.065C195.963 154.69 195.506 154.503 194.978 154.503C194.439 154.503 193.97 154.69 193.595 155.065C193.22 155.44 193.033 155.897 193.033 156.413C193.033 156.764 193.115 157.093 193.291 157.386C193.455 157.679 193.689 157.913 193.994 158.077C194.299 158.253 194.627 158.335 194.978 158.335ZM193.408 171.706H196.549V159.987H193.408V171.706ZM202.371 171.905C203.086 171.905 203.672 171.846 204.129 171.718C204.574 171.6 205.031 171.413 205.476 171.167L204.668 168.659C204.129 168.94 203.637 169.069 203.191 169.069C202.816 169.069 202.558 168.952 202.394 168.706C202.23 168.471 202.16 168.085 202.16 167.569V162.589H205.347V159.987H202.16V155.815L199.019 156.155V159.987H197.637V162.589H199.019V168.003C199.019 169.292 199.312 170.264 199.91 170.921C200.508 171.577 201.328 171.905 202.371 171.905ZM214.439 159.987V161.311H214.392C213.514 160.304 212.365 159.788 210.935 159.788C210.162 159.788 209.424 159.94 208.744 160.245C208.064 160.55 207.478 160.971 206.986 161.499C206.494 162.038 206.119 162.682 205.838 163.432C205.557 164.194 205.416 165.014 205.416 165.882C205.416 166.772 205.557 167.604 205.838 168.354C206.119 169.104 206.506 169.749 206.998 170.264C207.49 170.78 208.088 171.19 208.779 171.471C209.471 171.764 210.221 171.905 211.029 171.905C212.529 171.905 213.689 171.366 214.533 170.288H214.592V171.706H217.58V159.987H214.439ZM211.603 169.093C210.713 169.093 209.998 168.8 209.435 168.202C208.873 167.616 208.603 166.843 208.603 165.893C208.603 164.909 208.885 164.124 209.459 163.514C210.033 162.917 210.748 162.612 211.615 162.612C212.459 162.612 213.162 162.929 213.725 163.55C214.287 164.182 214.568 164.956 214.568 165.893C214.568 166.843 214.275 167.616 213.713 168.202C213.139 168.8 212.435 169.093 211.603 169.093Z" fill="white"/>
</svg>
