<svg width="375" height="350" viewBox="0 0 375 350" fill="none" xmlns="http://www.w3.org/2000/svg">
<rect x="-88" width="552" height="350" rx="36" fill="white"/>
<path d="M44.1504 248.057L32.877 269.08H32.7754L21.4258 248.057H14.0625V285H21.3242V262.047H21.4004L30.4141 277.992H35.1621L44.1758 262.047H44.252V285H51.5137V248.057H44.1504ZM62.2387 285H86.9437V278.475H69.4496V269.918H82.602V263.469H69.4496V254.607H85.852V248.057H62.2387V285ZM119.86 248.057V273.016H119.759L103.331 248.057H96.0437V285H103.331V260.523H103.432L119.682 285H127.173V248.057H119.86ZM137.898 285H150.263C153.183 285 155.849 284.568 158.236 283.654C160.622 282.766 162.603 281.521 164.228 279.896C165.853 278.271 167.097 276.342 167.96 274.057C168.823 271.797 169.28 269.309 169.28 266.592C169.28 263.9 168.823 261.387 167.909 259.102C166.995 256.816 165.726 254.861 164.075 253.236C162.425 251.611 160.394 250.342 158.007 249.428C155.62 248.514 152.98 248.057 150.111 248.057H137.898V285ZM145.109 278.475V254.607H150.263C152.446 254.607 154.402 255.141 156.154 256.156C157.88 257.172 159.251 258.594 160.216 260.422C161.181 262.25 161.689 264.307 161.689 266.592C161.689 268.268 161.384 269.842 160.825 271.289C160.267 272.762 159.454 274.006 158.439 275.072C157.423 276.139 156.154 276.951 154.681 277.561C153.183 278.17 151.558 278.475 149.806 278.475H145.109ZM178.457 285H203.162V278.475H185.668V269.918H198.82V263.469H185.668V254.607H202.07V248.057H178.457V285ZM239.668 285.432C240.913 285.432 242.131 285.305 243.35 285.051C244.543 284.797 245.711 284.365 246.854 283.756C247.996 283.146 249.012 282.436 249.875 281.572C250.739 280.709 251.424 279.643 251.957 278.348C252.465 277.053 252.745 275.631 252.745 274.057C252.745 272.533 252.491 271.213 252.034 270.045C251.272 268.217 249.723 266.668 247.438 265.398C246.422 264.865 244.391 264.002 241.319 262.783C240.354 262.428 239.567 262.123 239.008 261.869C238.45 261.615 237.866 261.336 237.307 261.031C236.748 260.727 236.317 260.422 236.038 260.117C235.733 259.812 235.504 259.482 235.352 259.102C235.174 258.746 235.098 258.314 235.098 257.857C235.098 256.715 235.53 255.801 236.342 255.141C237.155 254.48 238.221 254.15 239.541 254.15C241.928 254.15 244.62 255.369 247.59 257.781L251.805 252.271C247.971 249.123 243.832 247.574 239.364 247.625C237.18 247.676 235.174 248.158 233.371 249.072C231.543 249.986 230.121 251.256 229.08 252.855C228.014 254.48 227.506 256.258 227.506 258.188C227.506 259.152 227.608 260.066 227.836 260.93C228.065 261.793 228.37 262.529 228.725 263.189C229.08 263.85 229.563 264.459 230.147 265.043C230.731 265.627 231.315 266.135 231.924 266.541C232.508 266.947 233.219 267.379 234.032 267.785C234.844 268.191 235.58 268.547 236.291 268.801C236.977 269.08 237.764 269.385 238.678 269.689C239.668 270.045 240.481 270.324 241.09 270.578C241.7 270.832 242.284 271.111 242.842 271.416C243.401 271.721 243.832 272.051 244.137 272.355C244.442 272.686 244.67 273.066 244.848 273.473C245 273.904 245.102 274.387 245.102 274.92C245.102 275.707 244.899 276.393 244.518 276.951C244.112 277.535 243.528 277.992 242.715 278.322C241.903 278.678 240.938 278.83 239.795 278.83C239.034 278.83 238.272 278.754 237.51 278.551C236.723 278.373 235.936 278.094 235.149 277.713C234.362 277.357 233.575 276.875 232.788 276.266C232 275.682 231.264 274.996 230.604 274.209L226.211 279.617C228.09 281.572 230.198 283.02 232.508 283.984C234.819 284.949 237.205 285.432 239.668 285.432ZM275.962 285.432C279.085 285.432 281.776 284.797 284.036 283.502C286.296 282.232 288.022 280.404 289.19 278.043C290.358 275.707 290.968 272.914 290.968 269.715V248.057H283.655V269.232C283.655 272.127 282.944 274.412 281.522 276.088C280.1 277.764 278.247 278.576 275.962 278.576C274.387 278.576 273.016 278.17 271.848 277.357C270.68 276.545 269.817 275.428 269.259 274.031C268.675 272.635 268.395 271.035 268.395 269.232V248.057H261.057V269.715C261.057 272.203 261.413 274.438 262.124 276.418C262.835 278.398 263.85 280.049 265.171 281.369C266.466 282.689 268.04 283.68 269.868 284.391C271.696 285.102 273.727 285.432 275.962 285.432ZM321.116 248.057L313.677 261.539H313.575L306.06 248.057H297.681L309.894 268.775V285H317.282V268.775L329.571 248.057H321.116ZM356.496 285H364.138L350.402 248.057H343.343L329.658 285H337.3L339.814 277.611H353.982L356.496 285ZM341.921 271.365L346.847 256.867H346.898L351.849 271.365H341.921Z" fill="black"/>
<path d="M237.925 94.0099C225.54 94.0099 216.498 101.218 213.498 113.277C210.378 125.885 207.207 138.501 204.147 151.134C203.736 152.848 203.093 153.397 201.345 153.38C192.774 153.294 184.246 153.243 175.701 153.38C173.421 153.38 172.598 152.626 172.067 150.526C168.93 138.004 165.716 125.508 162.502 112.994C159.442 100.995 150.409 94.027 138.092 94.0099C130.047 94.0099 122.002 94.0099 113.957 94.0099H111C115.071 99.0409 118.714 103.592 122.425 108.152C126.513 113.262 132.388 116.631 138.864 117.58C142.189 118.137 145.583 117.982 148.626 116.208C147.503 111.691 145.455 108.837 140.346 108.666C136.421 108.546 133.035 106.378 130.276 103.009C132.967 103.009 135.658 103.009 138.341 103.009C146.594 103.069 152.131 107.372 154.171 115.368C157.377 127.882 160.616 140.378 163.668 152.934C164.057 154.755 163.944 156.648 163.342 158.411C161.208 164.668 158.714 170.804 156.485 177.044C152.945 186.986 159.631 196.379 170.156 196.405C181.855 196.405 193.562 196.062 205.244 196.508C216.035 196.894 223.415 186.677 219.249 176.212C216.858 170.213 214.638 164.145 212.487 158.051C212.06 156.827 211.989 155.508 212.281 154.245C215.409 141.218 218.641 128.19 221.855 115.18C222.712 111.332 224.973 107.943 228.197 105.675C233.639 101.869 239.733 103.215 245.93 103.104C243.813 106.009 239.185 108.409 235.216 108.863C230.16 109.446 228.574 110.954 227.451 116.44C228.26 116.779 229.091 117.066 229.937 117.297C239.022 119.097 246.41 115.72 252.547 109.36C255.872 105.932 258.649 101.938 261.675 98.2182C262.686 96.9754 263.706 95.7155 265 94.1042C255.598 94.0014 246.744 93.9927 237.925 94.0099ZM207.301 187.432H169.59C168.811 187.449 168.038 187.292 167.327 186.971C166.617 186.651 165.987 186.176 165.485 185.58C163.77 183.558 164.027 181.398 164.996 179.092C165.519 177.867 169.847 162.551 175.238 162.551H201.268C205.844 162.996 208.776 172.073 209.521 174.67C209.521 174.67 211.15 178.886 211.767 181.038C211.934 181.593 211.998 182.174 211.955 182.752C212.093 185.443 211.004 187.457 207.259 187.457L207.301 187.432Z" fill="#A50C00"/>
<path d="M206.469 48.0704L200.47 51.3959C200.145 51.5884 199.877 51.8635 199.693 52.1932C199.51 52.5229 199.417 52.8955 199.424 53.2729V67.9633C199.424 73.4057 195.438 77.8368 190.519 77.8368H186.773C181.862 77.8368 177.877 73.4142 177.877 67.9718V53.2729C177.884 52.8955 177.791 52.5229 177.608 52.1932C177.424 51.8635 177.156 51.5884 176.831 51.3959L170.832 48.0704C170.718 48.016 170.592 47.9924 170.466 48.0021C170.34 48.0118 170.219 48.0544 170.115 48.1256C170.011 48.1968 169.927 48.294 169.873 48.4077C169.818 48.5214 169.794 48.6474 169.803 48.7732V67.9633C169.803 78.3511 177.406 86.819 186.782 86.819H190.519C199.887 86.819 207.489 78.3939 207.489 67.9633V48.7732C207.498 48.6486 207.473 48.5238 207.419 48.4112C207.365 48.2987 207.282 48.2022 207.179 48.1313C207.076 48.0604 206.957 48.0175 206.832 48.0068C206.708 47.9962 206.583 48.0181 206.469 48.0704Z" fill="#A50C00"/>
<path d="M230.913 79.8763C227.973 89.4585 221.657 95.2009 212.657 96.478C211.886 96.5894 211.149 96.7094 210.429 96.8379C206.999 97.4999 203.638 98.4842 200.393 99.7777L199.013 100.369C196.954 101.262 195.007 102.393 193.21 103.737H193.159L192.936 103.909C192.875 103.968 192.809 104.023 192.739 104.072L192.353 104.406C190.819 105.725 189.433 107.208 188.222 108.828C188.19 108.883 188.153 108.935 188.111 108.983C184.682 101.063 175.426 99.3492 175.066 99.2806C172.164 98.2302 169.179 97.4218 166.144 96.8637C165.372 96.7265 164.575 96.5979 163.744 96.478C154.736 95.2009 148.428 89.4585 145.48 79.8763C144.186 75.508 143.633 70.954 143.843 66.4031L149.242 67.9887C149.995 68.2413 150.656 68.7118 151.141 69.3404C151.626 69.9691 151.914 70.7275 151.968 71.5198C152.174 73.4568 152.582 75.3671 153.185 77.2194C155.147 83.3818 158.944 86.7844 164.772 87.6158C173.712 88.8843 180.637 91.4641 185.342 95.2695C186.371 96.0907 187.318 97.0092 188.171 98.0122C189.021 97.0071 189.968 96.0884 190.999 95.2695C195.722 91.4641 202.647 88.8843 211.569 87.6158C217.397 86.7587 221.185 83.3818 223.148 77.2194C223.749 75.3661 224.16 73.4563 224.374 71.5198C224.427 70.7275 224.715 69.9691 225.2 69.3404C225.686 68.7118 226.346 68.2413 227.099 67.9887L232.49 66.4031C232.724 70.9508 232.191 75.5055 230.913 79.8763Z" fill="#A50C00"/>
</svg>
