<svg width="375" height="341" viewBox="0 0 375 341" fill="none" xmlns="http://www.w3.org/2000/svg">
<rect x="459.569" y="2.92297" width="337.231" height="550.57" rx="35" transform="rotate(90 459.569 2.92297)" fill="#03A438"/>
<path d="M-90 35C-90 15.67 -74.33 0 -55 0H425C444.33 0 460 15.67 460 35V182H-90V35Z" fill="white"/>
<path d="M91.3791 109.526C91.8351 109.418 92.3271 109.346 92.8551 109.31C93.3831 109.274 93.9051 109.256 94.4211 109.256C94.9731 109.256 95.5311 109.31 96.0951 109.418C96.6711 109.526 97.1931 109.724 97.6611 110.012C98.1291 110.3 98.5071 110.696 98.7951 111.2C99.0951 111.704 99.2451 112.346 99.2451 113.126C99.2451 113.894 99.1071 114.542 98.8311 115.07C98.5551 115.598 98.1891 116.03 97.7331 116.366C97.2771 116.69 96.7551 116.924 96.1671 117.068C95.5791 117.212 94.9731 117.284 94.3491 117.284C94.2891 117.284 94.1871 117.284 94.0431 117.284C93.9111 117.284 93.7671 117.284 93.6111 117.284C93.4671 117.272 93.3231 117.26 93.1791 117.248C93.0351 117.236 92.9331 117.224 92.8731 117.212V122H91.3791V109.526ZM94.4571 110.552C94.1451 110.552 93.8451 110.558 93.5571 110.57C93.2691 110.582 93.0411 110.612 92.8731 110.66V115.88C92.9331 115.904 93.0291 115.922 93.1611 115.934C93.2931 115.934 93.4311 115.94 93.5751 115.952C93.7191 115.952 93.8571 115.952 93.9891 115.952C94.1211 115.952 94.2171 115.952 94.2771 115.952C94.6851 115.952 95.0871 115.916 95.4831 115.844C95.8911 115.76 96.2571 115.616 96.5811 115.412C96.9051 115.208 97.1631 114.92 97.3551 114.548C97.5591 114.176 97.6611 113.702 97.6611 113.126C97.6611 112.634 97.5651 112.226 97.3731 111.902C97.1931 111.566 96.9471 111.302 96.6351 111.11C96.3351 110.906 95.9931 110.762 95.6091 110.678C95.2251 110.594 94.8411 110.552 94.4571 110.552ZM100.153 113.666C100.609 113.39 101.137 113.186 101.737 113.054C102.349 112.922 102.985 112.856 103.645 112.856C104.269 112.856 104.767 112.94 105.139 113.108C105.523 113.276 105.811 113.498 106.003 113.774C106.207 114.038 106.339 114.332 106.399 114.656C106.471 114.98 106.507 115.304 106.507 115.628C106.507 116.348 106.489 117.05 106.453 117.734C106.417 118.418 106.399 119.066 106.399 119.678C106.399 120.122 106.417 120.542 106.453 120.938C106.489 121.334 106.555 121.7 106.651 122.036H105.589L105.211 120.776H105.121C105.013 120.944 104.875 121.112 104.707 121.28C104.551 121.436 104.359 121.58 104.131 121.712C103.903 121.832 103.639 121.934 103.339 122.018C103.039 122.102 102.697 122.144 102.313 122.144C101.929 122.144 101.569 122.084 101.233 121.964C100.909 121.844 100.627 121.676 100.387 121.46C100.147 121.232 99.955 120.962 99.811 120.65C99.679 120.338 99.613 119.984 99.613 119.588C99.613 119.06 99.721 118.622 99.937 118.274C100.153 117.914 100.453 117.632 100.837 117.428C101.233 117.212 101.701 117.062 102.241 116.978C102.793 116.882 103.399 116.834 104.059 116.834C104.227 116.834 104.389 116.834 104.545 116.834C104.713 116.834 104.881 116.846 105.049 116.87C105.085 116.51 105.103 116.186 105.103 115.898C105.103 115.238 104.971 114.776 104.707 114.512C104.443 114.248 103.963 114.116 103.267 114.116C103.063 114.116 102.841 114.134 102.601 114.17C102.373 114.194 102.133 114.236 101.881 114.296C101.641 114.344 101.407 114.41 101.179 114.494C100.963 114.566 100.771 114.65 100.603 114.746L100.153 113.666ZM102.709 120.884C103.045 120.884 103.345 120.842 103.609 120.758C103.873 120.662 104.101 120.548 104.293 120.416C104.485 120.272 104.641 120.116 104.761 119.948C104.893 119.78 104.989 119.618 105.049 119.462V117.968C104.881 117.956 104.707 117.95 104.527 117.95C104.359 117.938 104.191 117.932 104.023 117.932C103.651 117.932 103.285 117.956 102.925 118.004C102.577 118.04 102.265 118.118 101.989 118.238C101.725 118.346 101.509 118.502 101.341 118.706C101.185 118.898 101.107 119.144 101.107 119.444C101.107 119.864 101.257 120.212 101.557 120.488C101.857 120.752 102.241 120.884 102.709 120.884ZM107.679 113H109.083V111.218L110.523 110.804V113H112.971V114.26H110.523V119.246C110.523 119.87 110.601 120.314 110.757 120.578C110.913 120.83 111.177 120.956 111.549 120.956C111.861 120.956 112.125 120.926 112.341 120.866C112.557 120.794 112.797 120.704 113.061 120.596L113.385 121.694C113.061 121.85 112.707 121.976 112.323 122.072C111.939 122.168 111.525 122.216 111.081 122.216C110.349 122.216 109.833 122.012 109.533 121.604C109.233 121.184 109.083 120.488 109.083 119.516V114.26H107.679V113ZM114.912 113H116.352V122H114.912V113ZM114.606 110.264C114.606 109.988 114.696 109.754 114.876 109.562C115.068 109.358 115.308 109.256 115.596 109.256C115.884 109.256 116.13 109.358 116.334 109.562C116.538 109.754 116.64 109.988 116.64 110.264C116.64 110.54 116.538 110.768 116.334 110.948C116.13 111.128 115.884 111.218 115.596 111.218C115.308 111.218 115.068 111.128 114.876 110.948C114.696 110.768 114.606 110.54 114.606 110.264ZM125.633 121.28C125.273 121.568 124.817 121.796 124.265 121.964C123.725 122.132 123.149 122.216 122.537 122.216C121.853 122.216 121.259 122.108 120.755 121.892C120.251 121.664 119.837 121.346 119.513 120.938C119.189 120.518 118.949 120.02 118.793 119.444C118.637 118.868 118.559 118.22 118.559 117.5C118.559 115.964 118.901 114.794 119.585 113.99C120.269 113.186 121.247 112.784 122.519 112.784C122.927 112.784 123.335 112.832 123.743 112.928C124.151 113.012 124.517 113.18 124.841 113.432C125.165 113.684 125.429 114.044 125.633 114.512C125.837 114.968 125.939 115.574 125.939 116.33C125.939 116.726 125.903 117.164 125.831 117.644H120.053C120.053 118.172 120.107 118.64 120.215 119.048C120.323 119.456 120.491 119.804 120.719 120.092C120.947 120.368 121.241 120.584 121.601 120.74C121.973 120.884 122.423 120.956 122.951 120.956C123.359 120.956 123.767 120.884 124.175 120.74C124.583 120.596 124.889 120.428 125.093 120.236L125.633 121.28ZM122.537 114.044C121.829 114.044 121.259 114.23 120.827 114.602C120.407 114.974 120.155 115.61 120.071 116.51H124.535C124.535 115.598 124.361 114.962 124.013 114.602C123.665 114.23 123.173 114.044 122.537 114.044ZM133.621 122V116.87C133.621 115.934 133.483 115.232 133.207 114.764C132.943 114.284 132.451 114.044 131.731 114.044C131.095 114.044 130.567 114.218 130.147 114.566C129.739 114.902 129.451 115.328 129.283 115.844V122H127.843V113H128.851L129.121 114.098H129.193C129.481 113.714 129.865 113.402 130.345 113.162C130.837 112.91 131.419 112.784 132.091 112.784C132.583 112.784 133.015 112.844 133.387 112.964C133.759 113.072 134.065 113.27 134.305 113.558C134.557 113.846 134.743 114.236 134.863 114.728C134.995 115.208 135.061 115.82 135.061 116.564V122H133.621ZM136.139 113H137.543V111.218L138.983 110.804V113H141.431V114.26H138.983V119.246C138.983 119.87 139.061 120.314 139.217 120.578C139.373 120.83 139.637 120.956 140.009 120.956C140.321 120.956 140.585 120.926 140.801 120.866C141.017 120.794 141.257 120.704 141.521 120.596L141.845 121.694C141.521 121.85 141.167 121.976 140.783 122.072C140.399 122.168 139.985 122.216 139.541 122.216C138.809 122.216 138.293 122.012 137.993 121.604C137.693 121.184 137.543 120.488 137.543 119.516V114.26H136.139V113ZM157.334 113.54L157.514 111.65H157.424L156.74 113.378L153.464 119.066H153.014L149.54 113.36L148.892 111.65H148.802L149.054 113.522V122H147.65V109.4H148.766L152.708 115.844L153.302 117.248H153.338L153.896 115.808L157.658 109.4H158.828V122H157.334V113.54ZM161.24 113.666C161.696 113.39 162.224 113.186 162.824 113.054C163.436 112.922 164.072 112.856 164.732 112.856C165.356 112.856 165.854 112.94 166.226 113.108C166.61 113.276 166.898 113.498 167.09 113.774C167.294 114.038 167.426 114.332 167.486 114.656C167.558 114.98 167.594 115.304 167.594 115.628C167.594 116.348 167.576 117.05 167.54 117.734C167.504 118.418 167.486 119.066 167.486 119.678C167.486 120.122 167.504 120.542 167.54 120.938C167.576 121.334 167.642 121.7 167.738 122.036H166.676L166.298 120.776H166.208C166.1 120.944 165.962 121.112 165.794 121.28C165.638 121.436 165.446 121.58 165.218 121.712C164.99 121.832 164.726 121.934 164.426 122.018C164.126 122.102 163.784 122.144 163.4 122.144C163.016 122.144 162.656 122.084 162.32 121.964C161.996 121.844 161.714 121.676 161.474 121.46C161.234 121.232 161.042 120.962 160.898 120.65C160.766 120.338 160.7 119.984 160.7 119.588C160.7 119.06 160.808 118.622 161.024 118.274C161.24 117.914 161.54 117.632 161.924 117.428C162.32 117.212 162.788 117.062 163.328 116.978C163.88 116.882 164.486 116.834 165.146 116.834C165.314 116.834 165.476 116.834 165.632 116.834C165.8 116.834 165.968 116.846 166.136 116.87C166.172 116.51 166.19 116.186 166.19 115.898C166.19 115.238 166.058 114.776 165.794 114.512C165.53 114.248 165.05 114.116 164.354 114.116C164.15 114.116 163.928 114.134 163.688 114.17C163.46 114.194 163.22 114.236 162.968 114.296C162.728 114.344 162.494 114.41 162.266 114.494C162.05 114.566 161.858 114.65 161.69 114.746L161.24 113.666ZM163.796 120.884C164.132 120.884 164.432 120.842 164.696 120.758C164.96 120.662 165.188 120.548 165.38 120.416C165.572 120.272 165.728 120.116 165.848 119.948C165.98 119.78 166.076 119.618 166.136 119.462V117.968C165.968 117.956 165.794 117.95 165.614 117.95C165.446 117.938 165.278 117.932 165.11 117.932C164.738 117.932 164.372 117.956 164.012 118.004C163.664 118.04 163.352 118.118 163.076 118.238C162.812 118.346 162.596 118.502 162.428 118.706C162.272 118.898 162.194 119.144 162.194 119.444C162.194 119.864 162.344 120.212 162.644 120.488C162.944 120.752 163.328 120.884 163.796 120.884ZM175.731 122V116.87C175.731 115.934 175.593 115.232 175.317 114.764C175.053 114.284 174.561 114.044 173.841 114.044C173.205 114.044 172.677 114.218 172.257 114.566C171.849 114.902 171.561 115.328 171.393 115.844V122H169.953V113H170.961L171.231 114.098H171.303C171.591 113.714 171.975 113.402 172.455 113.162C172.947 112.91 173.529 112.784 174.201 112.784C174.693 112.784 175.125 112.844 175.497 112.964C175.869 113.072 176.175 113.27 176.415 113.558C176.667 113.846 176.853 114.236 176.973 114.728C177.105 115.208 177.171 115.82 177.171 116.564V122H175.731ZM179.293 113.666C179.749 113.39 180.277 113.186 180.877 113.054C181.489 112.922 182.125 112.856 182.785 112.856C183.409 112.856 183.907 112.94 184.279 113.108C184.663 113.276 184.951 113.498 185.143 113.774C185.347 114.038 185.479 114.332 185.539 114.656C185.611 114.98 185.647 115.304 185.647 115.628C185.647 116.348 185.629 117.05 185.593 117.734C185.557 118.418 185.539 119.066 185.539 119.678C185.539 120.122 185.557 120.542 185.593 120.938C185.629 121.334 185.695 121.7 185.791 122.036H184.729L184.351 120.776H184.261C184.153 120.944 184.015 121.112 183.847 121.28C183.691 121.436 183.499 121.58 183.271 121.712C183.043 121.832 182.779 121.934 182.479 122.018C182.179 122.102 181.837 122.144 181.453 122.144C181.069 122.144 180.709 122.084 180.373 121.964C180.049 121.844 179.767 121.676 179.527 121.46C179.287 121.232 179.095 120.962 178.951 120.65C178.819 120.338 178.753 119.984 178.753 119.588C178.753 119.06 178.861 118.622 179.077 118.274C179.293 117.914 179.593 117.632 179.977 117.428C180.373 117.212 180.841 117.062 181.381 116.978C181.933 116.882 182.539 116.834 183.199 116.834C183.367 116.834 183.529 116.834 183.685 116.834C183.853 116.834 184.021 116.846 184.189 116.87C184.225 116.51 184.243 116.186 184.243 115.898C184.243 115.238 184.111 114.776 183.847 114.512C183.583 114.248 183.103 114.116 182.407 114.116C182.203 114.116 181.981 114.134 181.741 114.17C181.513 114.194 181.273 114.236 181.021 114.296C180.781 114.344 180.547 114.41 180.319 114.494C180.103 114.566 179.911 114.65 179.743 114.746L179.293 113.666ZM181.849 120.884C182.185 120.884 182.485 120.842 182.749 120.758C183.013 120.662 183.241 120.548 183.433 120.416C183.625 120.272 183.781 120.116 183.901 119.948C184.033 119.78 184.129 119.618 184.189 119.462V117.968C184.021 117.956 183.847 117.95 183.667 117.95C183.499 117.938 183.331 117.932 183.163 117.932C182.791 117.932 182.425 117.956 182.065 118.004C181.717 118.04 181.405 118.118 181.129 118.238C180.865 118.346 180.649 118.502 180.481 118.706C180.325 118.898 180.247 119.144 180.247 119.444C180.247 119.864 180.397 120.212 180.697 120.488C180.997 120.752 181.381 120.884 181.849 120.884ZM194.901 122.414C194.901 123.578 194.589 124.436 193.965 124.988C193.353 125.54 192.441 125.816 191.229 125.816C190.509 125.816 189.927 125.768 189.483 125.672C189.051 125.588 188.679 125.474 188.367 125.33L188.745 124.106C189.021 124.214 189.327 124.316 189.663 124.412C189.999 124.508 190.437 124.556 190.977 124.556C191.481 124.556 191.889 124.508 192.201 124.412C192.525 124.328 192.783 124.178 192.975 123.962C193.167 123.758 193.299 123.488 193.371 123.152C193.443 122.828 193.479 122.438 193.479 121.982V121.118H193.407C193.167 121.466 192.861 121.736 192.489 121.928C192.117 122.108 191.631 122.198 191.031 122.198C189.819 122.198 188.925 121.82 188.349 121.064C187.785 120.308 187.503 119.132 187.503 117.536C187.503 116 187.869 114.836 188.601 114.044C189.333 113.24 190.413 112.838 191.841 112.838C192.525 112.838 193.107 112.892 193.587 113C194.079 113.108 194.517 113.234 194.901 113.378V122.414ZM191.283 120.938C191.895 120.938 192.375 120.788 192.723 120.488C193.071 120.176 193.317 119.696 193.461 119.048V114.44C192.981 114.212 192.369 114.098 191.625 114.098C190.809 114.098 190.167 114.374 189.699 114.926C189.231 115.478 188.997 116.342 188.997 117.518C188.997 118.022 189.039 118.484 189.123 118.904C189.207 119.324 189.339 119.684 189.519 119.984C189.699 120.284 189.933 120.518 190.221 120.686C190.509 120.854 190.863 120.938 191.283 120.938ZM203.885 121.28C203.525 121.568 203.069 121.796 202.517 121.964C201.977 122.132 201.401 122.216 200.789 122.216C200.105 122.216 199.511 122.108 199.007 121.892C198.503 121.664 198.089 121.346 197.765 120.938C197.441 120.518 197.201 120.02 197.045 119.444C196.889 118.868 196.811 118.22 196.811 117.5C196.811 115.964 197.153 114.794 197.837 113.99C198.521 113.186 199.499 112.784 200.771 112.784C201.179 112.784 201.587 112.832 201.995 112.928C202.403 113.012 202.769 113.18 203.093 113.432C203.417 113.684 203.681 114.044 203.885 114.512C204.089 114.968 204.191 115.574 204.191 116.33C204.191 116.726 204.155 117.164 204.083 117.644H198.305C198.305 118.172 198.359 118.64 198.467 119.048C198.575 119.456 198.743 119.804 198.971 120.092C199.199 120.368 199.493 120.584 199.853 120.74C200.225 120.884 200.675 120.956 201.203 120.956C201.611 120.956 202.019 120.884 202.427 120.74C202.835 120.596 203.141 120.428 203.345 120.236L203.885 121.28ZM200.789 114.044C200.081 114.044 199.511 114.23 199.079 114.602C198.659 114.974 198.407 115.61 198.323 116.51H202.787C202.787 115.598 202.613 114.962 202.265 114.602C201.917 114.23 201.425 114.044 200.789 114.044ZM211.37 122V116.906C211.37 116.426 211.346 116.012 211.298 115.664C211.262 115.304 211.184 115.004 211.064 114.764C210.944 114.524 210.77 114.344 210.542 114.224C210.326 114.104 210.038 114.044 209.678 114.044C209.126 114.044 208.664 114.212 208.292 114.548C207.932 114.884 207.68 115.304 207.536 115.808V122H206.096V113H207.104L207.374 114.098H207.446C207.77 113.714 208.142 113.402 208.562 113.162C208.994 112.91 209.552 112.784 210.236 112.784C210.812 112.784 211.28 112.898 211.64 113.126C212.012 113.342 212.3 113.726 212.504 114.278C212.78 113.81 213.158 113.444 213.638 113.18C214.13 112.916 214.682 112.784 215.294 112.784C215.798 112.784 216.224 112.844 216.572 112.964C216.92 113.072 217.208 113.27 217.436 113.558C217.664 113.846 217.826 114.236 217.922 114.728C218.03 115.22 218.084 115.844 218.084 116.6V122H216.644V116.582C216.644 116.15 216.62 115.778 216.572 115.466C216.536 115.142 216.452 114.878 216.32 114.674C216.2 114.458 216.026 114.302 215.798 114.206C215.582 114.098 215.294 114.044 214.934 114.044C214.334 114.044 213.866 114.212 213.53 114.548C213.194 114.884 212.954 115.364 212.81 115.988V122H211.37ZM226.913 121.28C226.553 121.568 226.097 121.796 225.545 121.964C225.005 122.132 224.429 122.216 223.817 122.216C223.133 122.216 222.539 122.108 222.035 121.892C221.531 121.664 221.117 121.346 220.793 120.938C220.469 120.518 220.229 120.02 220.073 119.444C219.917 118.868 219.839 118.22 219.839 117.5C219.839 115.964 220.181 114.794 220.865 113.99C221.549 113.186 222.527 112.784 223.799 112.784C224.207 112.784 224.615 112.832 225.023 112.928C225.431 113.012 225.797 113.18 226.121 113.432C226.445 113.684 226.709 114.044 226.913 114.512C227.117 114.968 227.219 115.574 227.219 116.33C227.219 116.726 227.183 117.164 227.111 117.644H221.333C221.333 118.172 221.387 118.64 221.495 119.048C221.603 119.456 221.771 119.804 221.999 120.092C222.227 120.368 222.521 120.584 222.881 120.74C223.253 120.884 223.703 120.956 224.231 120.956C224.639 120.956 225.047 120.884 225.455 120.74C225.863 120.596 226.169 120.428 226.373 120.236L226.913 121.28ZM223.817 114.044C223.109 114.044 222.539 114.23 222.107 114.602C221.687 114.974 221.435 115.61 221.351 116.51H225.815C225.815 115.598 225.641 114.962 225.293 114.602C224.945 114.23 224.453 114.044 223.817 114.044ZM234.902 122V116.87C234.902 115.934 234.764 115.232 234.488 114.764C234.224 114.284 233.732 114.044 233.012 114.044C232.376 114.044 231.848 114.218 231.428 114.566C231.02 114.902 230.732 115.328 230.564 115.844V122H229.124V113H230.132L230.402 114.098H230.474C230.762 113.714 231.146 113.402 231.626 113.162C232.118 112.91 232.7 112.784 233.372 112.784C233.864 112.784 234.296 112.844 234.668 112.964C235.04 113.072 235.346 113.27 235.586 113.558C235.838 113.846 236.024 114.236 236.144 114.728C236.276 115.208 236.342 115.82 236.342 116.564V122H234.902ZM237.419 113H238.823V111.218L240.263 110.804V113H242.711V114.26H240.263V119.246C240.263 119.87 240.341 120.314 240.497 120.578C240.653 120.83 240.917 120.956 241.289 120.956C241.601 120.956 241.865 120.926 242.081 120.866C242.297 120.794 242.537 120.704 242.801 120.596L243.125 121.694C242.801 121.85 242.447 121.976 242.063 122.072C241.679 122.168 241.265 122.216 240.821 122.216C240.089 122.216 239.573 122.012 239.273 121.604C238.973 121.184 238.823 120.488 238.823 119.516V114.26H237.419V113ZM254.618 118.796C254.618 118.292 254.468 117.884 254.168 117.572C253.868 117.248 253.49 116.966 253.034 116.726C252.59 116.474 252.104 116.24 251.576 116.024C251.048 115.808 250.556 115.55 250.1 115.25C249.656 114.938 249.284 114.56 248.984 114.116C248.684 113.66 248.534 113.084 248.534 112.388C248.534 111.404 248.876 110.624 249.56 110.048C250.244 109.472 251.216 109.184 252.476 109.184C253.208 109.184 253.874 109.238 254.474 109.346C255.074 109.454 255.542 109.592 255.878 109.76L255.428 111.074C255.152 110.942 254.744 110.816 254.204 110.696C253.676 110.576 253.076 110.516 252.404 110.516C251.612 110.516 251.018 110.696 250.622 111.056C250.226 111.404 250.028 111.818 250.028 112.298C250.028 112.766 250.178 113.156 250.478 113.468C250.778 113.78 251.15 114.062 251.594 114.314C252.05 114.554 252.542 114.794 253.07 115.034C253.598 115.274 254.084 115.556 254.528 115.88C254.984 116.192 255.362 116.57 255.662 117.014C255.962 117.458 256.112 118.01 256.112 118.67C256.112 119.21 256.016 119.696 255.824 120.128C255.632 120.56 255.35 120.932 254.978 121.244C254.606 121.556 254.156 121.796 253.628 121.964C253.1 122.132 252.5 122.216 251.828 122.216C250.928 122.216 250.184 122.144 249.596 122C249.008 121.868 248.552 121.718 248.228 121.55L248.732 120.2C249.008 120.356 249.416 120.512 249.956 120.668C250.496 120.812 251.102 120.884 251.774 120.884C252.17 120.884 252.542 120.848 252.89 120.776C253.238 120.692 253.538 120.566 253.79 120.398C254.042 120.218 254.24 119.996 254.384 119.732C254.54 119.468 254.618 119.156 254.618 118.796ZM260.634 118.832L261.138 120.56H261.228L261.624 118.814L263.37 113H264.828L262.164 121.082C261.96 121.67 261.756 122.24 261.552 122.792C261.36 123.344 261.144 123.836 260.904 124.268C260.664 124.7 260.394 125.042 260.094 125.294C259.794 125.558 259.446 125.69 259.05 125.69C258.618 125.69 258.264 125.63 257.988 125.51L258.24 124.268C258.396 124.328 258.546 124.358 258.69 124.358C259.026 124.358 259.35 124.178 259.662 123.818C259.974 123.47 260.232 122.864 260.436 122L256.818 113H258.474L260.634 118.832ZM269.973 119.552C269.973 119.192 269.865 118.91 269.649 118.706C269.433 118.502 269.163 118.334 268.839 118.202C268.527 118.058 268.179 117.926 267.795 117.806C267.423 117.674 267.075 117.512 266.751 117.32C266.439 117.116 266.175 116.858 265.959 116.546C265.743 116.234 265.635 115.814 265.635 115.286C265.635 114.422 265.881 113.792 266.373 113.396C266.865 112.988 267.549 112.784 268.425 112.784C269.073 112.784 269.613 112.844 270.045 112.964C270.489 113.072 270.873 113.204 271.197 113.36L270.855 114.548C270.579 114.416 270.243 114.302 269.847 114.206C269.463 114.098 269.049 114.044 268.605 114.044C268.077 114.044 267.687 114.134 267.435 114.314C267.195 114.494 267.075 114.806 267.075 115.25C267.075 115.562 267.183 115.808 267.399 115.988C267.615 116.156 267.879 116.312 268.191 116.456C268.515 116.588 268.863 116.72 269.235 116.852C269.619 116.984 269.967 117.158 270.279 117.374C270.603 117.59 270.873 117.866 271.089 118.202C271.305 118.526 271.413 118.958 271.413 119.498C271.413 119.882 271.347 120.242 271.215 120.578C271.095 120.914 270.903 121.202 270.639 121.442C270.375 121.682 270.045 121.868 269.649 122C269.265 122.144 268.809 122.216 268.281 122.216C267.597 122.216 267.015 122.15 266.535 122.018C266.055 121.886 265.653 121.73 265.329 121.55L265.761 120.326C266.037 120.482 266.397 120.626 266.841 120.758C267.285 120.89 267.735 120.956 268.191 120.956C268.707 120.956 269.133 120.854 269.469 120.65C269.805 120.446 269.973 120.08 269.973 119.552ZM272.041 113H273.445V111.218L274.885 110.804V113H277.333V114.26H274.885V119.246C274.885 119.87 274.963 120.314 275.119 120.578C275.275 120.83 275.539 120.956 275.911 120.956C276.223 120.956 276.487 120.926 276.703 120.866C276.919 120.794 277.159 120.704 277.423 120.596L277.747 121.694C277.423 121.85 277.069 121.976 276.685 122.072C276.301 122.168 275.887 122.216 275.443 122.216C274.711 122.216 274.195 122.012 273.895 121.604C273.595 121.184 273.445 120.488 273.445 119.516V114.26H272.041V113ZM285.345 121.28C284.985 121.568 284.529 121.796 283.977 121.964C283.437 122.132 282.861 122.216 282.249 122.216C281.565 122.216 280.971 122.108 280.467 121.892C279.963 121.664 279.549 121.346 279.225 120.938C278.901 120.518 278.661 120.02 278.505 119.444C278.349 118.868 278.271 118.22 278.271 117.5C278.271 115.964 278.613 114.794 279.297 113.99C279.981 113.186 280.959 112.784 282.231 112.784C282.639 112.784 283.047 112.832 283.455 112.928C283.863 113.012 284.229 113.18 284.553 113.432C284.877 113.684 285.141 114.044 285.345 114.512C285.549 114.968 285.651 115.574 285.651 116.33C285.651 116.726 285.615 117.164 285.543 117.644H279.765C279.765 118.172 279.819 118.64 279.927 119.048C280.035 119.456 280.203 119.804 280.431 120.092C280.659 120.368 280.953 120.584 281.313 120.74C281.685 120.884 282.135 120.956 282.663 120.956C283.071 120.956 283.479 120.884 283.887 120.74C284.295 120.596 284.601 120.428 284.805 120.236L285.345 121.28ZM282.249 114.044C281.541 114.044 280.971 114.23 280.539 114.602C280.119 114.974 279.867 115.61 279.783 116.51H284.247C284.247 115.598 284.073 114.962 283.725 114.602C283.377 114.23 282.885 114.044 282.249 114.044ZM292.83 122V116.906C292.83 116.426 292.806 116.012 292.758 115.664C292.722 115.304 292.644 115.004 292.524 114.764C292.404 114.524 292.23 114.344 292.002 114.224C291.786 114.104 291.498 114.044 291.138 114.044C290.586 114.044 290.124 114.212 289.752 114.548C289.392 114.884 289.14 115.304 288.996 115.808V122H287.556V113H288.564L288.834 114.098H288.906C289.23 113.714 289.602 113.402 290.022 113.162C290.454 112.91 291.012 112.784 291.696 112.784C292.272 112.784 292.74 112.898 293.1 113.126C293.472 113.342 293.76 113.726 293.964 114.278C294.24 113.81 294.618 113.444 295.098 113.18C295.59 112.916 296.142 112.784 296.754 112.784C297.258 112.784 297.684 112.844 298.032 112.964C298.38 113.072 298.668 113.27 298.896 113.558C299.124 113.846 299.286 114.236 299.382 114.728C299.49 115.22 299.544 115.844 299.544 116.6V122H298.104V116.582C298.104 116.15 298.08 115.778 298.032 115.466C297.996 115.142 297.912 114.878 297.78 114.674C297.66 114.458 297.486 114.302 297.258 114.206C297.042 114.098 296.754 114.044 296.394 114.044C295.794 114.044 295.326 114.212 294.99 114.548C294.654 114.884 294.414 115.364 294.27 115.988V122H292.83Z" fill="#595959"/>
<path d="M149.385 61.568C149.385 59.36 148.889 57.6 147.897 56.288C146.905 54.944 145.433 54.272 143.481 54.272C142.841 54.272 142.249 54.304 141.705 54.368C141.161 54.4 140.713 54.448 140.361 54.512V67.424C140.809 67.712 141.385 67.952 142.089 68.144C142.825 68.336 143.561 68.432 144.297 68.432C147.689 68.432 149.385 66.144 149.385 61.568ZM156.681 61.376C156.681 63.328 156.441 65.104 155.961 66.704C155.481 68.304 154.777 69.68 153.849 70.832C152.921 71.984 151.769 72.88 150.393 73.52C149.017 74.16 147.433 74.48 145.641 74.48C144.649 74.48 143.721 74.384 142.857 74.192C141.993 74 141.161 73.728 140.361 73.376V82.88H133.209V49.616C133.849 49.424 134.585 49.248 135.417 49.088C136.249 48.896 137.113 48.736 138.009 48.608C138.937 48.48 139.865 48.384 140.793 48.32C141.753 48.224 142.665 48.176 143.529 48.176C145.609 48.176 147.465 48.496 149.097 49.136C150.729 49.744 152.105 50.624 153.225 51.776C154.345 52.896 155.193 54.272 155.769 55.904C156.377 57.536 156.681 59.36 156.681 61.376ZM173.65 60.608C173.65 58.304 173.346 56.672 172.738 55.712C172.162 54.752 171.154 54.272 169.714 54.272C169.266 54.272 168.802 54.304 168.322 54.368C167.842 54.4 167.378 54.448 166.93 54.512V74H159.778V49.616C160.386 49.456 161.09 49.296 161.89 49.136C162.722 48.944 163.586 48.784 164.482 48.656C165.41 48.496 166.354 48.384 167.314 48.32C168.274 48.224 169.218 48.176 170.146 48.176C171.97 48.176 173.442 48.416 174.562 48.896C175.714 49.344 176.658 49.888 177.394 50.528C178.418 49.792 179.586 49.216 180.898 48.8C182.242 48.384 183.474 48.176 184.594 48.176C186.61 48.176 188.258 48.464 189.538 49.04C190.85 49.584 191.89 50.368 192.658 51.392C193.426 52.416 193.954 53.632 194.242 55.04C194.53 56.448 194.674 58.016 194.674 59.744V74H187.522V60.608C187.522 58.304 187.218 56.672 186.61 55.712C186.034 54.752 185.026 54.272 183.586 54.272C183.202 54.272 182.658 54.368 181.954 54.56C181.282 54.752 180.722 54.992 180.274 55.28C180.498 56.016 180.642 56.8 180.706 57.632C180.77 58.432 180.802 59.296 180.802 60.224V74H173.65V60.608ZM206.016 68.864C207.328 68.864 208.256 68.736 208.8 68.48C209.344 68.224 209.616 67.728 209.616 66.992C209.616 66.416 209.264 65.92 208.56 65.504C207.856 65.056 206.784 64.56 205.344 64.016C204.224 63.6 203.2 63.168 202.272 62.72C201.376 62.272 200.608 61.744 199.968 61.136C199.328 60.496 198.832 59.744 198.48 58.88C198.128 58.016 197.952 56.976 197.952 55.76C197.952 53.392 198.832 51.52 200.592 50.144C202.352 48.768 204.768 48.08 207.84 48.08C209.376 48.08 210.848 48.224 212.256 48.512C213.664 48.768 214.784 49.056 215.616 49.376L214.368 54.944C213.536 54.656 212.624 54.4 211.632 54.176C210.672 53.952 209.584 53.84 208.368 53.84C206.128 53.84 205.008 54.464 205.008 55.712C205.008 56 205.056 56.256 205.152 56.48C205.248 56.704 205.44 56.928 205.728 57.152C206.016 57.344 206.4 57.568 206.88 57.824C207.392 58.048 208.032 58.304 208.8 58.592C210.368 59.168 211.664 59.744 212.688 60.32C213.712 60.864 214.512 61.472 215.088 62.144C215.696 62.784 216.112 63.504 216.336 64.304C216.592 65.104 216.72 66.032 216.72 67.088C216.72 69.584 215.776 71.472 213.888 72.752C212.032 74.032 209.392 74.672 205.968 74.672C203.728 74.672 201.856 74.48 200.352 74.096C198.88 73.712 197.856 73.392 197.28 73.136L198.48 67.328C199.696 67.808 200.944 68.192 202.224 68.48C203.504 68.736 204.768 68.864 206.016 68.864Z" fill="#323232"/>
<rect x="106.796" y="87.3569" width="15.3316" height="47.0129" rx="7.66579" transform="rotate(-180 106.796 87.3569)" fill="#03A438"/>
<rect width="15.3316" height="47.0129" rx="7.66579" transform="matrix(0 -1 -1 0 123.013 71.4814)" fill="#FECBC5"/>
</svg>
