<svg width="33" height="34" viewBox="0 0 33 34" fill="none" xmlns="http://www.w3.org/2000/svg">
<path d="M11.3283 33.4388C11.8384 33.2172 12.1957 32.7052 12.1957 32.1092V28.1985C12.1957 28.0558 12.2071 27.9074 12.2251 27.7567C12.215 27.7596 12.2057 27.7618 12.1957 27.764C12.1957 27.764 10.0435 27.764 9.61304 27.764C8.53696 27.764 7.60435 27.3294 7.17391 26.4604C6.67174 25.5189 6.45652 23.9257 5.16522 23.0566C4.95 22.9118 5.09348 22.6945 5.52391 22.6945C5.95435 22.767 6.88696 23.3463 7.46087 24.143C8.10652 24.9396 8.75217 25.5914 9.9 25.5914C11.6842 25.5914 12.6404 25.5008 13.2158 25.1894C13.8858 24.1835 14.8134 23.4187 15.7826 23.4187V23.4006C11.7164 23.2688 9.11876 21.9044 7.90924 19.7977C5.28 19.8282 2.9908 20.091 1.68443 20.3097C1.64283 20.0729 1.60696 19.8347 1.57611 19.595C2.86526 19.3806 5.05043 19.1264 7.56274 19.0779C7.48239 18.878 7.4128 18.6731 7.35398 18.463C4.83522 18.3341 2.66152 18.4348 1.4807 18.5333C1.46635 18.2928 1.44698 18.0531 1.44411 17.8098C2.62709 17.712 4.74196 17.6143 7.19615 17.7294C7.13948 17.3673 7.10289 16.9972 7.10289 16.612C7.10289 15.3808 7.53333 14.0773 8.32246 12.991C7.96376 11.7598 7.46159 9.15269 8.46593 8.21122C10.4029 8.21122 11.7659 9.15269 12.4116 9.73205C13.6304 9.22438 14.9935 8.9347 16.5 8.9347C18.0065 8.9347 19.3696 9.22438 20.5174 9.73132C21.163 9.15196 22.5261 8.2105 24.463 8.2105C25.5391 9.22438 24.9652 11.8315 24.6065 12.9902C25.3957 14.0765 25.8261 15.3077 25.7543 16.6112C25.7543 16.9618 25.7221 17.3 25.6754 17.6316C28.1856 17.5071 30.3578 17.607 31.5609 17.7055C31.5595 17.9496 31.5372 18.1878 31.5243 18.429C30.3256 18.3291 28.0988 18.2262 25.5277 18.3645C25.4638 18.6079 25.3863 18.8447 25.2945 19.0743C27.8384 19.1076 30.0759 19.356 31.4268 19.5732C31.3959 19.8137 31.36 20.0519 31.3184 20.288C29.9468 20.0664 27.6088 19.8072 24.9487 19.7941C23.7543 21.8784 21.2039 23.2377 17.2174 23.3963V23.4187C19.0826 23.4187 20.8043 26.2431 20.8043 28.1985V32.1092C20.8043 32.7052 21.1616 33.2172 21.6717 33.4388C28.2437 31.243 33 24.9859 33 17.6251C33 8.44079 25.5987 0.968475 16.5 0.968475C7.40133 0.968475 0 8.44079 0 17.6251C0 24.9859 4.7563 31.243 11.3283 33.4388Z" fill="white"/>
</svg>
