<svg width="37" height="37" viewBox="0 0 37 37" fill="none" xmlns="http://www.w3.org/2000/svg">
<path d="M18.5 0C9.1153 0 1.47998 7.63458 1.47998 17.02C1.47998 26.4054 9.1153 34.04 18.5 34.04C27.8847 34.04 35.52 26.4054 35.52 17.02C35.52 7.63458 27.8847 0 18.5 0ZM13.32 24.42H10.36V13.32H13.32V24.42ZM11.84 11.1C11.0223 11.1 10.36 10.4377 10.36 9.62C10.36 8.8023 11.0223 8.14 11.84 8.14C12.6577 8.14 13.32 8.8023 13.32 9.62C13.32 10.4377 12.6577 11.1 11.84 11.1ZM27.38 24.42H24.42V20.72V18.87C24.42 17.4455 23.2545 16.28 21.83 16.28C20.4055 16.28 19.24 17.4455 19.24 18.87V24.42H16.28V13.32H19.24V14.6638C20.1043 13.8336 21.2765 13.32 22.57 13.32C25.2266 13.32 27.38 15.4734 27.38 18.13V24.42Z" fill="white"/>
</svg>
