<svg width="37" height="37" viewBox="0 0 37 37" fill="none" xmlns="http://www.w3.org/2000/svg">
<path d="M18.5 0C8.28429 0 0 8.28429 0 18.5C0 28.7157 8.28429 37 18.5 37C28.7157 37 37 28.7157 37 18.5C37 8.28429 28.7157 0 18.5 0ZM26.9469 14.4243C26.9551 14.6064 26.959 14.7893 26.959 14.9731C26.959 20.5841 22.688 27.0544 14.8774 27.0547H14.8777H14.8774C12.4794 27.0547 10.2479 26.3518 8.3687 25.1473C8.70095 25.1865 9.03913 25.206 9.38155 25.206C11.3711 25.206 13.202 24.5274 14.6555 23.3884C12.7967 23.3539 11.2294 22.1263 10.6885 20.439C10.9474 20.4887 11.2136 20.5158 11.4866 20.5158C11.8741 20.5158 12.2496 20.4636 12.6064 20.3662C10.6634 19.9772 9.19975 18.2601 9.19975 16.2039C9.19975 16.1847 9.19975 16.1675 9.20032 16.1497C9.77251 16.4678 10.4269 16.6592 11.1235 16.6807C9.98338 15.9199 9.23391 14.6194 9.23391 13.1461C9.23391 12.3681 9.44421 11.6393 9.80893 11.0118C11.9029 13.5811 15.0324 15.2709 18.5615 15.4485C18.4887 15.1374 18.4512 14.8133 18.4512 14.4802C18.4512 12.1361 20.3529 10.2343 22.6979 10.2343C23.9194 10.2343 25.0225 10.7506 25.7974 11.576C26.7648 11.3852 27.6732 11.0318 28.4938 10.5454C28.1763 11.5365 27.5033 12.3681 26.6265 12.8941C27.4855 12.7913 28.3041 12.5635 29.0649 12.2253C28.4967 13.077 27.776 13.825 26.9469 14.4243V14.4243Z" fill="white"/>
</svg>
