<?xml version="1.0" standalone="yes"?>
<svg xmlns="http://www.w3.org/2000/svg" width="576" height="400"
viewBox="450 240 140 568" stroke="#000" stroke-linecap="round">
<path style="fill:#121212; stroke:none;" d="M0 0L0 1000L984 1000L984 999L4 999L4 256L4 70L4 23L5.60339 6.60339L22 5L68 5L251 5L984 5L984 0L0 0z"/>
<path style="fill:#5e65bd; stroke:none;" d="M4 999L5 999L5 6L984 6L963 5L919 5L765 5L232 5L61 5L19 5L5.02778 6.60339L4 25L4 73L4 263L4 999z"/>
<path style="fill:#feffff; stroke:none;" d="M5 6L5 999L984 999L984 6L5 6z"/>
<path style="fill:#969ede; stroke:none;" d="M499 210.439C490.318 211.806 481.843 215.415 475 220.935C428.733 258.256 457.91 335.428 519 326.7C577.277 318.373 586.767 231.62 530 212.748C520.35 209.54 509.081 208.852 499 210.439z"/>
<path style="fill:#5e65bd; stroke:none;" d="M567 276L566 276C561.92 295.766 550.205 312.791 531 320.547C497.013 334.274 455.698 309.542 454.039 272C452.97 247.804 467.364 225.349 490 216.094C516.571 205.23 551.983 220.007 562 247C563.208 242.463 559.278 237.453 556.522 234C548.652 224.143 537.442 215.897 525 213.012C493.25 205.648 457.768 224.619 453.289 259C450.516 280.289 458.571 303.71 477 315.896C511.231 338.531 563.215 319.409 567 276z"/>
<path style="fill:#1e2dbf; stroke:none;" d="M500 213.428C492.458 214.511 486.471 217.099 480 221.054C431.266 250.842 458.052 332.868 516 324.7C532.509 322.373 547.95 314.154 557.239 300C577.371 269.323 562.87 225.316 527 214.879C518.67 212.455 508.558 212.199 500 213.428z"/>
<path style="fill:#5e65bd; stroke:none;" d="M508 247L508 248L514 248L508 247M516 248L516 249C536.445 257.825 533.837 290.489 509 289.246C485.516 288.071 485.182 257.226 504 249C496.234 247.731 488.938 257.959 488.789 265C488.518 277.753 494.219 288.619 508 290.496C533.639 293.988 541.529 252.621 516 248z"/>
<path style="fill:#969ede; stroke:none;" d="M504 248.638C479.434 255.729 490.07 295.677 515 288.698C541.584 281.257 530.443 241.005 504 248.638z"/>
<path style="fill:#5e65bd; stroke:none;" d="M563.333 248.667L563.667 249.333L563.333 248.667z"/>
<path style="fill:#feffff; stroke:none;" d="M504 249.819C480.18 258.422 493.126 295.35 517 286.271C539.453 277.732 526.792 241.587 504 249.819z"/>
<path style="fill:#5e65bd; stroke:none;" d="M564 250L564 253L565 253L564 250M565 253L566 264L567 264L565 253M566 265L566 275L567 275L566 265z"/>
<path style="fill:#969ede; stroke:none;" d="M502 677C494.486 679.751 479.812 694.536 472.001 692.553C467.097 691.308 463.898 684.545 460.819 681C452.456 671.37 444.243 661.594 435.844 652C410.848 623.447 384.27 605.32 345 607.039C333.96 607.523 322.934 610.763 313 615.471C244.34 648.018 239.972 751.896 311 785.68C347.128 802.863 382.025 794.183 415 775.124C426.813 768.296 438.13 760.626 450 753.87C453.482 751.888 459.73 746.883 463.91 747.65C468.869 748.559 473.215 756.497 476.286 760C485.262 770.236 494.484 785.076 506.015 792.438C520.313 801.566 539.398 788.876 535.983 772C532.128 752.948 507.435 741.538 500 724C507.274 721.682 520.692 707.412 527.996 709.422C532.693 710.715 536.432 717.496 539.428 721C548.245 731.31 557.355 741.489 566.424 751.576C573.004 758.893 579.29 767.344 587 773.485C614.291 795.226 650.152 801.152 683 789.459C694.358 785.416 705.389 778.385 714 769.985C766.286 718.983 743.272 629.714 673 609.909C661.402 606.64 648.905 606.171 637 607.718C624.007 609.407 611.301 613.26 600 620.001C590.297 625.788 576.223 631.284 569 640C582.456 634.907 594.105 624.802 607 618.37C628.974 607.41 657.968 604.812 681 614.348C739.869 638.721 761.865 714.147 717.829 763C709.758 771.955 699.766 779.247 689 784.63C645.911 806.174 602.415 788.5 572.17 755C561.205 742.855 550.792 730.214 539.92 718C536.598 714.268 531.816 706.185 526 707.198C521.692 707.947 517.597 711.666 514 713.947C510.447 716.201 499.549 720.475 499.036 725.105C498.515 729.808 505.84 735.762 508.576 739C518.954 751.284 551.579 780.281 523 792.633C504.765 800.514 486.472 768.351 476.754 757.015C473.652 753.396 468.331 744.934 462.999 745.083C455.507 745.292 444.416 755.22 438 758.989C418.909 770.204 400.222 783.263 379 790.113C315.198 810.708 248.339 748.113 261.666 683C274.39 620.832 349.405 587.348 403 623.04C422.041 635.72 436.557 655.627 451.08 673C456.504 679.488 462.373 688.57 469.17 693.589C475.588 698.328 490.445 685.572 496 682.085C498.397 680.581 502.684 678.268 502.655 674.961C502.614 670.311 494.458 663.604 491.661 659.985C480.877 646.031 469.436 632.673 458.31 619C443.874 601.258 429.356 583.577 414.715 566C377.117 520.866 319.185 473.18 342.508 408C345.759 398.916 350.522 390.549 356.515 383C384.163 348.169 433.354 336.16 473 357.668C482.886 363.031 491.09 370.091 499 378C501.617 380.617 505.899 386.793 510 386.793C516.102 386.793 524.716 374.127 528.911 370.185C539.28 360.44 553.275 353.218 567 349.583C633.018 332.098 699.441 396.061 680.441 463C671.532 494.391 644.046 522.919 621.911 545.985C611.678 556.647 592.2 555.037 589.355 538C587.106 524.533 606.853 508.207 614.729 499C623.93 488.245 635.607 477.051 641.486 464C654.178 435.823 643.137 402.099 615 388.273C589.395 375.691 562.156 386.113 544.17 406C534.757 416.407 523.769 437.851 507 434.867C490.755 431.977 480.911 409.746 469.816 399.247C445.053 375.814 402.853 377.876 383.094 407C360.729 439.966 380.9 470.38 403 496C433.074 530.865 462.129 566.614 491.565 602C501.988 614.53 512.404 627.198 522.49 640C526.467 645.048 531.139 653.814 537.17 656.577C544.316 659.851 562.213 645.038 568 641C558.807 640.208 546.977 658.498 538.004 654.183C532.187 651.386 527.321 642.956 523.406 637.961C514.172 626.178 504.605 614.549 495.076 603C464.434 565.858 433.8 528.655 402.573 492C383.741 469.895 365.505 445.976 380.131 416C397.275 380.864 443.067 375.278 469.829 402.17C481.208 413.604 493.536 439.827 513 436.532C524.936 434.511 531.156 424.593 538.424 416C548.835 403.692 559.159 391.809 575 386.746C616.862 373.366 656.835 417.544 641.771 458C631.503 485.575 601.661 501.01 589.569 527C581.625 544.074 599.456 560.552 616 552.941C627.592 547.608 636.832 531.456 645.155 522C656.682 508.904 669.648 495.194 676.573 479C695.631 434.429 680.247 383.789 639 357.951C609.871 339.704 569.88 341.24 541 358.81C532.989 363.684 526.626 369.375 520 376C517.492 378.507 513.855 383.734 510.039 384.114C504.645 384.651 495.025 370.986 491 367.59C478.217 356.805 462.608 349.001 446 346.424C370.497 334.71 310.636 413.909 345.27 483C354.902 502.215 372.18 518.498 385.739 534.996C414.067 569.466 443.528 603.003 471.231 637.961C481.119 650.438 494.712 662.876 502 677z"/>
<path style="fill:#5e65bd; stroke:none;" d="M440 596C434.003 584.437 422.646 573.905 414.17 564C378.255 522.036 322.077 473.346 342.506 412C345.172 403.993 348.76 395.81 353.78 389C361.03 379.165 368.65 369.99 379 363.229C392.386 354.485 409.902 348.195 426 348.004C445.645 347.77 466 352.984 482 364.78C489.039 369.97 495.532 375.329 501.501 381.754C503.722 384.145 506.298 388.34 510.004 388.248C514.315 388.142 518.239 382.756 521 380C528.517 372.496 535.9 365.65 545 360.069C576.462 340.773 621.468 344.591 649 369.174C678.171 395.22 690.972 436.044 675.536 473C669.485 487.488 660.14 497.891 650.513 510C641.231 521.675 631.968 535.4 620.907 545.406C615.533 550.267 609.254 553.62 602.001 550.891C584.92 544.464 591.988 528.071 600.438 518C624.296 489.564 662.602 455.872 642.849 415C639.907 408.912 636.415 404.01 631.83 399.004C624.81 391.337 614.535 384.867 604 384C613.745 389.961 623.225 392.563 631.561 401.286C654.437 425.221 648.867 457.713 628.996 481.001C616.899 495.179 601.255 509.849 591.955 526C586.754 535.033 589.171 545.206 598.004 550.867C605.048 555.381 613.702 554.122 619.985 548.775C635.162 535.861 648.313 516.62 660.714 501C702.953 447.802 681.277 363.881 611 348.662C587.866 343.652 560.927 347.288 541 360.464C532.811 365.878 525.934 372.072 519 379C516.803 381.195 513.458 385.944 510 385.944C506.542 385.944 503.197 381.195 501 379C495.005 373.01 489.066 367.259 482 362.519C462.374 349.353 435.363 342.847 412 348.235C358.713 360.526 324.603 413.493 340.721 467C351.367 502.34 385.037 532.734 408.718 560C418.801 571.609 427.754 586.634 440 596z"/>
<path style="fill:#1e2dbf; stroke:none;" d="M539 660C526.14 648.622 516.686 633.044 505.573 620C481.47 591.71 457.965 562.752 434.386 534C417.101 512.923 391.442 491.602 379.489 467C363.25 433.575 378.716 394.797 415 384.036C436.031 377.799 459.224 385.801 473.561 402.039C483.922 413.774 494.623 436.111 513 433.815C526.405 432.14 535.884 414.158 544.17 405C561.231 386.143 587.305 375.454 612 386.146C619.657 389.461 626.192 393.797 631.83 400.001C636.399 405.028 639.904 409.905 642.849 416C660.373 452.259 630.925 478.755 610.424 505C602.329 515.364 575.078 544.692 603 551.529C620.342 555.776 634.109 531.201 643.414 520C651.68 510.048 661.483 500.096 668.127 488.961C686.12 458.806 686.718 422.482 669.279 392C645.219 349.948 589.04 336.312 547 358.362C537.91 363.13 530.203 369.798 523 377C519.821 380.178 515.546 386.357 511.001 387.503C507.265 388.445 504.408 384.108 502.258 381.754C495.867 374.753 488.771 368.714 481 363.3C463.228 350.92 438.355 345.291 417 348.754C402.269 351.143 387.134 356.399 375 365.289C339.622 391.211 328.838 439.886 346.887 479C355.423 497.5 369.962 511.404 382.69 527.001C405.229 554.619 428.615 581.56 451.239 609.086C464.854 625.65 478.608 642.151 491.881 659C494.67 662.54 505.237 672.11 503.093 676.826C500.072 683.473 485.133 689.328 479 693.138C476.271 694.833 473.342 696.795 470.171 694.998C463.683 691.324 458.676 682.519 453.844 677C438.071 658.984 423.044 635.003 401.715 623.109C382.408 612.343 360.172 606.949 338 610.439C290.25 617.955 252.683 666.186 262.514 715C275.452 779.242 341.181 809.262 399 781.059C414.585 773.457 429.907 763.462 444.83 754.54C449.859 751.533 457.934 743.519 463.96 743.827C468.865 744.078 473.526 752.626 476.424 756C486.099 767.263 505.607 800.583 523.985 791.161C549.695 777.978 516.931 749.807 507.08 738C504.472 734.874 497.861 729.568 498.256 725.09C498.744 719.574 509.876 715.522 514 713.15C517.673 711.037 521.818 707.108 526 706.234C532.433 704.889 537.804 714.96 541.286 718.999C554.19 733.97 566.705 750.275 580.985 763.911C597.676 779.848 616.872 790.048 640 792.816C687.429 798.491 733.034 761.756 739.7 715C748.294 654.717 697.939 606.03 639 610.089C611.605 611.976 586.395 630.222 564 644.576C556.099 649.64 545.771 653.613 539 660z"/>
<path style="fill:#5e65bd; stroke:none;" d="M416 383L416 384L443 384C435.59 379.561 424.169 382.355 416 383M583 382L583 383L603 384L583 382M578 383L578 384L583 384L578 383M413 384L413 385L416 385L413 384M443 384L443 385L447 385L443 384M574 384L574 385L577 385L574 384M410 385L410 386L413 386L410 385M447 385L447 386L450 386L447 385M568 386L568 387L574 386L568 386M401 389L401 390L410 387L401 389M450.667 386.333L451.333 386.667L450.667 386.333M452 387L452 388L463 393L452 387M564 388L564 389L568 388L564 388M562.667 389.333L563.333 389.667L562.667 389.333M396 393L401 391L396 393M559 392L562 390L559 392M556 394L559 392L556 394M384 405L396 393L384 405M463 393L469 398L463 393M542 408L556 394C550.198 396.706 544.706 402.198 542 408M469 398L474 403L469 398M474 403L478 408L474 403M383 405L382 408L383 405M381.333 408.667L381.667 409.333L381.333 408.667M478 408L488 420L478 408M541 408L532 420C535.529 417.301 541.103 412.664 541 408M380 410L379 413L380 410M378 413L377 418L378 418L378 413M376 418L376 421L377 421L376 418M488 420L492 425L488 420M531 420L525 428L531 420M375 421L372 436L373 436L375 421M492 425L493 426L492 425M493 426L494 427L493 426M494 427L495 428L494 427M495 428L498 431L495 428M518 432L518 433L525 428L518 432M498 431L499 432L498 431M500.667 432.333L501.333 432.667L500.667 432.333M502 433L502 434L518 434L518 433L502 433M373 442L374 455L375 455L373 442M375 456L377 463L378 463L375 456M378.333 463.667L378.667 464.333L378.333 463.667M379 465L381 471L382 471L379 465M382 471L388 479L382 471M388 479L388 481L390 481L388 479M390 481L394 486L390 481M394 486L395 487L394 486M395 487L400 493L395 487M400 493L400 495L402 495L400 493M402 495L412 507L402 495M412 507L413 508L412 507M413 508L416 512L413 508M416 512L432 531C428.981 523.869 422.255 516.499 416 512M432 531L434 533L434 531L432 531M434 533L438 538L434 533M438 538L442 543L438 538M442 543L443 544L442 543M443 544L444 545L443 544M444 545L446 548L444 545M446 548L452 555L446 548M452 555L452 557L454 557L452 555M454 557L458 562L454 557M458 562L459 563L458 562M459 563L463 568L459 563M463 568L464 569L463 568M464 569L472 578L464 569M472 579L473 580L472 579M473 580L486 596L473 580M486 596L487 597L486 596M440 597L447 606L448 606L440 597M487 597L488 598L487 597M488 598L489 599L488 598M489 599L490 600L489 599M490 600L492 603L490 600M492 603L496 608L492 603M448 606L450 608L450 606L448 606M338 609L338 610L384 614C370.706 605.647 352.661 608.879 338 609M450 608L454 613L450 608M496 608L499 612L496 608M621 612L621 613L668 611C654.738 605.046 634.658 609.351 621 612M333 610L333 611L338 611L333 610M315 616L315 617L333 612C327.377 609.811 320.241 613.861 315 616M668 611L668 612L675 613L668 611M499 612L504 618L499 612M454 613L455 614L454 613M616 616L621 614L616 616M675 613L675 614L686 617L675 613M384 614L384 615L388 616L388 615L384 614M455 614L463 624L455 614M613.667 615.333L614.333 615.667L613.667 615.333M388.667 616.333L389.333 616.667L388.667 616.333M611.667 616.333L612.333 616.667L611.667 616.333M312 617L312 618L315 618L312 617M390.667 617.333L391.333 617.667L390.667 617.333M599 622L599 623L611 618L599 622M686.667 617.333L687.333 617.667L686.667 617.333M311 618L307 620L307 621L311 618M392 618L392 619L403 623L403 622L392 618M504 618L505 619L504 618M688 618L688 619L691 619L688 618M505 619L506 620L505 619M691.667 619.333L692.333 619.667L691.667 619.333M506 620L509 624L506 620M693 620L693 621L698 623L698 622L693 620M305.667 621.333L306.333 621.667L305.667 621.333M300 624L300 625L305 622L300 624M403 623L407 626L407 625L403 623M596 625L599 623L596 625M698 623L704 627L698 623M463.333 624.667L463.667 625.333L463.333 624.667M509 624L510 625L509 624M299 625L300 626L299 625M510 625L511 626L510 625M594.667 625.333L595.333 625.667L594.667 625.333M298 626L299 627L298 626M407 626L408 627L407 626M464 626L466 628L466 626L464 626M511 626L514 630L511 626M592.667 626.333L593.333 626.667L592.667 626.333M296.667 627.333L297.333 627.667L296.667 627.333M408 627L412 630L408 627M575 636L575 637C580.958 636.057 588.691 632.154 592 627L575 636M704 627L705 628L704 627M295 628L296 629L295 628M466 628L467 629L466 628M705 628L706 629L705 628M294 629L295 630L294 629M467 629L468 630L467 629M706 629L712 634L706 629M290 633L294 630L290 633M412 630L413 631L412 630M468 630L469 631L468 630M514 630L515 631L514 630M413 631L414 632L413 631M469 631L471 634L469 631M515 631L516 632L515 631M414 632L414 634L416 634L414 632M516.333 632.667L516.667 633.333L516.333 632.667M289 633L283 640C286.158 638.511 289.08 636.717 289 633M416 634L422 640L416 634M471 634L472 635L471 634M517 634L518 635L517 634M712 634L714 636L714 634L712 634M472 635L473 636L472 635M518 635L525 644L518 635M473 636L476 640L473 636M714 636L717 639L714 636M574 637L575 638L574 637M572.667 638.333L573.333 638.667L572.667 638.333M571 639L572 640L571 639M717 639L718 640L717 639M282 640L275 651C278.374 648.375 282.428 644.533 282 640M422 640L424 642L424 640L422 640M476 640L478 642L478 640L476 640M567 641L567 642L571 641L567 641M718 640L720 643L718 640M298 714L299 714C297.715 703.832 296.837 692.965 299.988 683C308.602 655.762 338.124 638.139 366 644.9C385.517 649.633 397.145 664.53 409.576 679C416.758 687.361 424.173 695.553 431.246 704C433.236 706.377 437.844 710.339 437.232 713.826C436.395 718.595 426.617 721.836 423 724.201C407.869 734.095 390.834 745.367 374 752C384.038 753.759 401.594 739.173 410 734.089C416.779 729.989 437.579 722.386 439.168 713.996C439.926 709.998 435.33 706.245 432.999 703.576C426.233 695.828 419.9 687.758 413.151 680C399.846 664.704 387.961 648.415 367 643.68C324.875 634.164 288.068 672.283 298 714M424 642L425 643L424 642M478 642L486 652L478 642M563 645L567 642L563 645M425 643L426 644L425 643M720 643L727 654L728 654L720 643z"/>
<path style="fill:#969ede; stroke:none;" d="M366 755L366 754C344.576 755.691 324.657 751.829 310.429 733.83C285.172 701.879 304.811 653.548 344 645.515C376.999 638.75 398.602 667.895 417.08 690C421.028 694.722 436.05 706.483 435.23 712.957C434.564 718.216 423.047 722.444 419 724.792C402.477 734.381 385.588 748.035 367 753C372.402 754.915 379.347 750.418 384 747.772C397.018 740.367 410.499 733.093 423 724.873C426.775 722.391 437.138 718.82 437.944 713.826C438.95 707.586 426.14 697.308 422.425 693C406.448 674.471 389.779 647.051 363 644.174C353.604 643.164 342.919 643.296 334 646.544C300.305 658.816 286.518 703.653 307.356 732.911C320.773 751.749 343.748 759.131 366 755z"/>
<path style="fill:#5e65bd; stroke:none;" d="M426 644L429 648L426 644M525 644L526 645L525 644M638 644.464C617.043 648.243 598.876 664.32 581.004 674.847C576.46 677.524 564.2 682.556 563.086 688.104C561.53 695.847 577.668 707.812 582.2 713.089C601.985 736.128 622.26 764.481 657 758.385C666.395 756.737 675.238 753.692 682.985 747.999C731.294 712.503 696.528 633.912 638 644.464z"/>
<path style="fill:#feffff; stroke:none;" d="M343 645.515C335.136 647.127 327.605 650.582 321 655.093C273.569 687.492 308.549 765.883 364 754.181C383.922 749.977 401.625 735.404 419 725.377C423.203 722.951 435.407 718.452 435.963 712.957C436.671 705.965 421.322 694.074 417.08 689C398.016 666.195 376.699 638.607 343 645.515z"/>
<path style="fill:#5e65bd; stroke:none;" d="M526 645L527 646L526 645M559 646L559 647L563 646L559 646z"/>
<path style="fill:#969ede; stroke:none;" d="M640 645.439C619.198 648.713 600.529 664.35 583 675.089C578.451 677.876 565.959 682.648 564.447 688.104C562.674 694.501 578.507 707.406 582.421 712C601.533 734.432 622.528 762.83 656 757.561C665.276 756.101 674.313 752.873 681.996 747.43C729.185 713.998 696.55 636.538 640 645.439z"/>
<path style="fill:#5e65bd; stroke:none;" d="M527 646L530 650L527 646M544 655L544 656L559 647L544 655z"/>
<path style="fill:#feffff; stroke:none;" d="M565 687C567.476 699.27 585.744 713.667 594.17 723C603.665 733.518 611.977 744.923 625 751.391C632.436 755.085 639.83 756 648 756C671.753 756 692.342 743.076 700.452 720C712.151 686.714 688.46 647.058 652 647C642.966 646.985 635.412 647.407 627 651.001C605.004 660.398 586.958 677.538 565 687z"/>
<path style="fill:#5e65bd; stroke:none;" d="M429 648L430 649L429 648M430 649L431 650L430 649M431 650L432 651L431 650M530 650L531 651L530 650M274 651L272 656L274 651M432 651L437 657L432 651M531 651L535 656L531 651M486 652L496 665L486 652M728 654L737 677L738 677C736.824 669.036 733.555 659.934 728 654M271.333 656.667L271.667 657.333L271.333 656.667M535 656L540 659L535 656M540 657L540 658L544 657L540 657M437 657L438 658L437 657M270 658L269 662L270 662L270 658M438 658L443 664L438 658M268 662C259.656 683.629 257.909 707.677 265 730L266 730L262.286 690L268 662M443 664L449 671L443 664M496 665L496 667L498 667L496 665M498 667L502 672L498 667M449 671L454 677L449 671M502 672L503 673L502 672M503 673L501 679C503.946 677.366 504.949 675.939 503 673M454 677L455 678L454 677M738 677L739 688L740 688L738 677M455 678L456 679L455 678M456 679L464 688L456 679M497 682L501 679L497 682M495.667 682.333L496.333 682.667L495.667 682.333M493.667 683.333L494.333 683.667L493.667 683.333M491.667 684.333L492.333 684.667L491.667 684.333M490 685L491 686L490 685M488.667 686.333L489.333 686.667L488.667 686.333M487 687L485 688L485 689L487 687M464 688L467 692L464 688M740 688L737 729L738 729C740.898 717.828 744.635 699.046 740 688M483.667 689.333L484.333 689.667L483.667 689.333M482 690L483 691L482 690M477 693L477 694L482 692L477 693M467 692L468 693L467 692M468 693L468 695L470 695L468 693M471 696L471 697L477 695L471 696M470 695L471 696L470 695M521 708L521 709C529.417 706.656 530.021 710.009 537 714C533.26 706.812 528.319 703.921 521 708M520 709L521 710L520 709M518.667 710.333L519.333 710.667L518.667 710.333M515 713L518 711L515 713M500 722L515 714C509.902 713.167 503.189 718.277 500 722M537 714L540 718L537 714M299 715L299 720L300 720L299 715M540 718L541 719L540 718M541 719L542 720L541 719M300.333 720.667L300.667 721.333L300.333 720.667M542 720L542 722L544 722L542 720M301 722L303 728L304 728L301 722M498 722L498 724L500 722L498 722M544 722L545 723L544 722M545 723L547 726L545 723M497 724L498 728L499 728L497 724M547 726L554 734L547 726M304.333 728.667L304.667 729.333L304.333 728.667M499 728L503 733L499 728M736 729L734 737L735 737L736 729M266 730L271 745L272 745L266 730M305 730L307 733L305 730M307 733L309 736L307 733M503 733L504 734L503 733M504 734L505 735L504 734M554 734L555 735L554 734M505 735L509 740L505 735M555 735L556 736L555 735M309 736L312 739L309 736M556 736L564 745L556 736M733 737L731 744L732 744L733 737M312 739L313 740L312 739M313 740L316 743L313 740M509 740L510 741L509 740M510 741L514 746L510 741M316 743L320 746L316 743M453 750C460.782 747.055 462.408 744.033 470 749C466.324 740.03 457.869 744.124 453 750M730 744L728 749L729 749L730 744M272 745L274 748L272 745M564 745L567 749L564 745M320 746L323 748L320 746M514 746L519 752L514 746M274.333 748.667L274.667 749.333L274.333 748.667M323 748L326 750L323 748M470 749L473 752L470 749M567 749L568 750L567 749M727 749L724 755L725 755L727 749M275 750L276 751L275 750M326.667 750.333L327.333 750.667L326.667 750.333M451.667 750.333L452.333 750.667L451.667 750.333M568 750L569 751L568 750M276.333 751.667L276.667 752.333L276.333 751.667M328 751L328 752L333 753L333 752L328 751M449.667 751.333L450.333 751.667L449.667 751.333M569 751L570 752L569 751M447 752L447 754L449 752L447 752M473 752L476 756L473 752M519 752L521 754L521 752L519 752M570 752L572 755L570 752M277 753L278 754L277 753M333 753L333 754L339 755L339 754L333 753M371.667 753.333L372.333 753.667L371.667 753.333M278 754L280 757L278 754M366 754L366 755L371 755L366 754M444.667 754.333L445.333 754.667L444.667 754.333M521 754L524 758L521 754M341 755L341 756L366 756L366 755L341 755M443 755L444 756L443 755M572 755L573 756L572 755M723 755L718 763L719 763L723 755M441.667 756.333L442.333 756.667L441.667 756.333M476 756L477 757L476 756M573 756L574 757L573 756M280 757L288 766L280 757M439.667 757.333L440.333 757.667L439.667 757.333M477 757L478 758L477 757M574 757L575 758L574 757M434 760L434 761L439 759L434 760M478 758L483 764L478 758M524 758L526 760L526 758L524 758M575 758L576 759L575 758M576 759L577 760L576 759M526 760L528 762L528 760L526 760M577 760L578 761L577 760M432.667 761.333L433.333 761.667L432.667 761.333M578 761L579 762L578 761M429 764L432 762L429 764M528 762L529 763L528 762M579 762L580 763L579 762M529 763L532 767L529 763M580 763L589 772L580 763M717 763L718 764L717 763M428 764L429 765L428 764M483 764L484 765L483 764M716 764L717 765L716 764M422 768L428 766L422 768M484 765L485 766L484 765M715 765L716 766L715 765M288 766L290 768L290 766L288 766M485 766L488 770L485 766M709 771L715 766L709 771M532 767L533 773L534 773L532 767M290 768L296 773L290 768M407 776L407 777L422 769L407 776M488 770L489 771L488 770M489 771L494 777L489 771M708 771L709 772L708 771M589 772L592 774L589 772M707 772L708 773L707 772M296 773L297 774L296 773M534 773L532 784L533 784L534 773M702 777L707 773L702 777M297 774L297 775L303 778L297 774M592 774L593 775L592 774M593 775L597 778L593 775M405.667 777.333L406.333 777.667L405.667 777.333M494 777L495 778L494 777M700.667 777.333L701.333 777.667L700.667 777.333M303 778L304 779L303 778M404 778L405 779L404 778M495 778L497 780L497 778L495 778M597 778L597 779L602 781L602 780L597 778M693 781L693 782L700 779L693 781M304.667 779.333L305.333 779.667L304.667 779.333M400 780L400 781L404 780L400 780M306 780L309 782L306 780M497 780L498 781L497 780M398.667 781.333L399.333 781.667L398.667 781.333M498 781L506 790L498 781M602 781L602 782L612 786L612 785L602 781M309 782L309 783L315 785L315 784L309 782M379 789L379 790L398 783L379 789M674 789L674 790L693 783L674 789M531 784C522.961 793.639 517.119 792.572 506 790L506 791C512.406 794.358 532.631 796.194 531 784M315 785L315 786L318 786L315 785M318.667 786.333L319.333 786.667L318.667 786.333M612 786L612 787C632.868 795.036 650.47 792.927 672 792L672 791L642 792.907L612 786M320 787L320 788C339.435 793.195 354.322 792.899 374 792L353 792.871L320 787M374 790L374 791L379 791L374 790M672.667 790.333L673.333 790.667L672.667 790.333z"/>
<text font-family="monospace" font-size="40" fill="#000" stroke="none"><tspan x="329.5" y="800.3">AegleHealth App</tspan></text>
</svg>
