<svg width="36" height="35" viewBox="0 0 36 35" fill="none" xmlns="http://www.w3.org/2000/svg">
<path d="M28 34.4828H8C3.589 34.4828 0 31.1445 0 27.0416V8.43881C0 4.33596 3.589 0.997681 8 0.997681H28C32.411 0.997681 36 4.33596 36 8.43881V27.0416C36 31.1445 32.411 34.4828 28 34.4828Z" fill="white"/>
<path d="M29.926 11.6832L23.414 17.7402L29.925 23.7964C29.969 23.6438 30 23.4867 30 23.3211V12.1594C30 11.9938 29.969 11.8367 29.926 11.6832ZM20.688 17.6463L28.512 10.368C28.347 10.328 28.178 10.2991 28 10.2991H8C7.822 10.2991 7.653 10.328 7.488 10.368L15.312 17.6463C16.795 19.0238 19.205 19.0238 20.688 17.6463ZM6.074 11.6832C6.031 11.8367 6 11.9938 6 12.1594V23.3211C6 23.4867 6.031 23.6438 6.074 23.7973L12.586 17.7402L6.074 11.6832ZM18 20.539C16.56 20.539 15.127 20.0349 14.01 19.0462L7.488 25.1125C7.653 25.1525 7.822 25.1814 8 25.1814H28C28.178 25.1814 28.347 25.1525 28.512 25.1125L21.99 19.0462C20.873 20.0349 19.44 20.539 18 20.539Z" fill="#9357FC"/>
</svg>
