<svg width="55" height="60" viewBox="0 0 55 60" fill="none" xmlns="http://www.w3.org/2000/svg">
<rect width="50" height="48" rx="7" fill="#1C1D1E"/>
<path d="M44.324 39.958H41.216L36.596 29.206H21.224L16.646 39.958H16.1L28.658 10.558H31.766L44.324 39.958ZM36.47 28.87L28.91 11.23L21.392 28.87H36.47Z" fill="white"/>
<path d="M44.324 39.958V40.958H45.8386L45.2436 39.5652L44.324 39.958ZM41.216 39.958L40.2972 40.3528L40.5573 40.958H41.216V39.958ZM36.596 29.206L37.5148 28.8112L37.2547 28.206H36.596V29.206ZM21.224 29.206V28.206H20.5629L20.3039 28.8143L21.224 29.206ZM16.646 39.958V40.958H17.3071L17.5661 40.3498L16.646 39.958ZM16.1 39.958L15.1804 39.5652L14.5855 40.958H16.1V39.958ZM28.658 10.558V9.558H27.9977L27.7384 10.1652L28.658 10.558ZM31.766 10.558L32.6856 10.1652L32.4263 9.558H31.766V10.558ZM36.47 28.87V29.87H37.9865L37.3891 28.4761L36.47 28.87ZM28.91 11.23L29.8291 10.8361L28.9074 8.68543L27.9901 10.8379L28.91 11.23ZM21.392 28.87L20.4721 28.4779L19.8788 29.87H21.392V28.87ZM44.324 38.958H41.216V40.958H44.324V38.958ZM42.1348 39.5632L37.5148 28.8112L35.6772 29.6008L40.2972 40.3528L42.1348 39.5632ZM36.596 28.206H21.224V30.206H36.596V28.206ZM20.3039 28.8143L15.7259 39.5662L17.5661 40.3498L22.1441 29.5977L20.3039 28.8143ZM16.646 38.958H16.1V40.958H16.646V38.958ZM17.0196 40.3508L29.5776 10.9508L27.7384 10.1652L15.1804 39.5652L17.0196 40.3508ZM28.658 11.558H31.766V9.558H28.658V11.558ZM30.8464 10.9508L43.4044 40.3508L45.2436 39.5652L32.6856 10.1652L30.8464 10.9508ZM37.3891 28.4761L29.8291 10.8361L27.9909 11.6239L35.5509 29.2639L37.3891 28.4761ZM27.9901 10.8379L20.4721 28.4779L22.3119 29.2621L29.8299 11.6221L27.9901 10.8379ZM21.392 29.87H36.47V27.87H21.392V29.87Z" fill="white"/>
</svg>
